# xmcd
#
# Track frame offsets:
#	150
#	23470
#	35282
#	48136
#	78189
#	91521
#	106775
#	121419
#	136462
#	150020
#	171827
#	185425
#	199437
#	212761
#	225350
#	238355
#	250446
#	261672
#
# Disc length: 3657
#
# Revision: 1
# Processed by: cddbd v1.5.1PL0 Copyright (c) Steve Scherf et al.
# Submitted via: CDex 1.51
# Normalized: r0:DSETVAR1,TDELIM( - )
#
DISCID=e20e4712
DTITLE=Various Artist - Delta Blues 1940 - 1951
DYEAR=2002
DGENRE=Blues
TTITLE0=Son House - Delta Blues
TTITLE1=Bukka White - Aberdeen Mississippi Blues
TTITLE2=Bukka White - Fixin' To Die Blues
TTITLE3=Son House - Walking Blues
TTITLE4=Robert Jr. Lockwood - Black Spider Blues
TTITLE5=Muddy Waters - You're Gonna Miss Me When I'm Gone
TTITLE6=Lucious Curtis - Lonesome Highway Blues
TTITLE7=Willie Ford - Santa Fe Blues
TTITLE8=Tony Hollins - Tease Me Over Blues
TTITLE9=William Brown - Ragged And Dirty
TTITLE10=Tommy McClennan - Deep Blue Sea Blues
TTITLE11=Tonny McClennan - I Love My Baby
TTITLE12=Robert Petway - Ride'em On Down
TTITLE13=Johnny Shines - Evil Hearted Woman Blues
TTITLE14=Joe Hill Louis - Joe's Jump
TTITLE15=Big Joe Williams - She's A Married Woman
TTITLE16=Arthour Crudup - My Baby Left Me
TTITLE17=Junior Brooks - Lone Town Blues
EXTD=YEAR: 2002
EXTT0=
EXTT1=
EXTT2=
EXTT3=
EXTT4=
EXTT5=
EXTT6=
EXTT7=
EXTT8=
EXTT9=
EXTT10=
EXTT11=
EXTT12=
EXTT13=
EXTT14=
EXTT15=
EXTT16=
EXTT17=
PLAYORDER=
